<?xml version="1.0" standalone="no"?><!DOCTYPE svg PUBLIC "-//W3C//DTD SVG 1.1//EN" "http://www.w3.org/Graphics/SVG/1.1/DTD/svg11.dtd"><svg t="1534442633124" class="icon" style="" viewBox="0 0 1024 1024" version="1.1" xmlns="http://www.w3.org/2000/svg" p-id="1187" xmlns:xlink="http://www.w3.org/1999/xlink" width="200" height="200"><defs><style type="text/css"></style></defs><path d="M584.83771619 766.49976263V366.57838421c0-46.60673081 72.80802702-46.60673081 72.80802703 0v399.92137842c0.00116395 46.61022379-72.80802702 46.61022379-72.80802703 0m-218.49393834 0V366.57838421c0-46.60673081 72.84295566-46.60673081 72.84295566 0v399.92137842c0 46.61022379-72.84295566 46.61022379-72.84295566 0m619.04520078-581.71091513H803.33165454v-72.73933369c0-60.22316146-48.95977131-109.05020302-108.11760299-109.05020302H329.93743645c-60.31863353 0-109.24464014 48.82820551-109.24464015 109.05020302v72.73933369H38.63547107c-46.67426019 0-46.67426019 72.67529728 0 72.67529728h946.75350756c46.6404955 0 46.6404955-72.67529728 0-72.67529728m-691.85322666-72.74166272c0-19.31449117 17.05808669-36.37374179 36.40168448-36.37374179h365.27545116c19.34359779 0 35.27581127 14.7772325 35.27581127 36.37374179v72.74049764H293.53575197v-72.74049764m473.36161734 908.95466951H257.09448078c-60.28370489 0-109.2097115-48.82471253-109.2097115-109.0455461V366.57838421c0-21.59767325 17.05925063-36.37257785 36.40168448-36.37257784 19.34825472 0 36.40517746 14.77490461 36.40517746 36.37257784v545.3767589c0 19.27723349 17.09301533 36.3318272 36.40168448 36.3318272h509.80172459c19.34243385 0 36.43544917-17.05459371 36.4354503-36.3318272V367.70425742c0-47.73144007 72.80802702-47.73144007 72.80802589 0v544.25205077c0.00232903 60.22083243-48.92367758 109.0455461-109.24114717 109.0455461m0 0z" p-id="1188"></path></svg>