<?xml version="1.0" standalone="no"?><!DOCTYPE svg PUBLIC "-//W3C//DTD SVG 1.1//EN" "http://www.w3.org/Graphics/SVG/1.1/DTD/svg11.dtd"><svg t="1534442468950" class="icon" style="" viewBox="0 0 1024 1024" version="1.1" xmlns="http://www.w3.org/2000/svg" p-id="1158" xmlns:xlink="http://www.w3.org/1999/xlink" width="200" height="200"><defs><style type="text/css"></style></defs><path d="M844.60312905 281.59290027l-121.9558615-121.9558615L238.26211523 644.06361632l-5.716681 127.63111728 127.63111727-5.71668101 484.42657755-484.38515232zM965.15053291 855.66366403L167.7149576 855.66366405a57.16681008 57.16681008 0 0 0-56.95968397 56.95968395 57.16681008 57.16681008 0 0 0 56.95968397 56.95968395l797.4355753 0a57.16681008 57.16681008 0 0 0 56.95968395-56.95968395c0-31.31746987-25.60078885-56.95968395-56.95968394-56.95968397zM868.91973595 257.23486815l-121.9558615-121.95586148 34.17581037-34.17581038a51.11872727 51.11872727 0 0 1 72.03846574 0l49.91739575 49.91739574a51.11872727 51.11872727 0 0 1 0 72.03846575l-34.17581036 34.17581037z" p-id="1159"></path></svg>