<?xml version="1.0" standalone="no"?><!DOCTYPE svg PUBLIC "-//W3C//DTD SVG 1.1//EN" "http://www.w3.org/Graphics/SVG/1.1/DTD/svg11.dtd"><svg t="1534440273218" class="icon" style="" viewBox="0 0 1024 1024" version="1.1" xmlns="http://www.w3.org/2000/svg" p-id="1100" xmlns:xlink="http://www.w3.org/1999/xlink" width="200" height="200"><defs><style type="text/css"></style></defs><path d="M511.886413 63.561641c6.737448 0 13.475919 2.572592 18.618033 7.723915 10.29139 10.293437 10.29139 26.974351-1e-8 37.265742l-263.31203399 263.57297801c-10.286274 10.296507-26.950815 10.296507-37.237089-1e-8-10.29139-10.293437-10.29139-26.974351 0-37.268812L493.26531 71.284533C498.410494 66.134233 505.148965 63.561641 511.886413 63.561641zM90.558505 485.274312L933.211251 485.274312c14.543228 0 26.336832 11.806907 26.336832 26.358321 0 14.558577-11.793604 26.360368-26.33683201 26.360368l-779.07370799 0L530.504446 914.712945c10.29139 10.296507 10.29139 26.974351 0 37.27085799-10.286274 10.296507-26.950815 10.296507-37.239136 1e-8l-421.324838-421.71574101c-7.53665-7.538697-9.798157-18.868743-5.706979-28.725228C70.294996 491.700675 79.914074 485.274312 90.558505 485.274312z" p-id="1101"></path></svg>