<?xml version="1.0" standalone="no"?><!DOCTYPE svg PUBLIC "-//W3C//DTD SVG 1.1//EN" "http://www.w3.org/Graphics/SVG/1.1/DTD/svg11.dtd"><svg t="1534436490789" class="icon" style="" viewBox="0 0 1024 1024" version="1.1" xmlns="http://www.w3.org/2000/svg" p-id="1163" xmlns:xlink="http://www.w3.org/1999/xlink" width="200" height="200"><defs><style type="text/css"></style></defs><path d="M527.36 607.80088889c-177.60711111 0-321.536 145.29422222-321.536 324.49422222h643.072c0-179.2-143.92888889-324.49422222-321.536-324.49422222z" fill="#FCEE21" p-id="1164"></path><path d="M488.33422222 945.26577778H142.56355555c-7.168 0-12.97066667-5.80266667-12.97066666-12.97066667 0-162.58844445 104.10666667-304.58311111 259.18577778-353.28 6.82666667-2.16177778 14.10844445 1.59288889 16.27022222 8.41955556 2.16177778 6.82666667-1.70666667 14.10844445-8.41955556 16.27022222C256.45511111 647.62311111 160.99555555 773.57511111 155.648 919.32444445h332.57244445c7.168 0 12.97066667 5.80266667 12.97066666 12.97066666s-5.80266667 12.97066667-12.85688889 12.97066667z" fill="#3E3A39" p-id="1165"></path><path d="M568.54755555 239.84355555c41.52888889 34.70222222 67.92533333 86.92622222 67.92533334 145.29422223 0 104.67555555-84.76444445 189.44-189.44 189.44-22.30044445 0-43.80444445-3.86844445-63.60177778-11.03644445 32.88177778 27.53422222 75.20711111 44.14577778 121.51466667 44.14577778 104.67555555 0 189.44-84.76444445 189.44-189.44-0.11377778-82.26133333-52.56533333-152.23466667-125.83822223-178.40355556z" fill="#F8B62D" p-id="1166"></path><path d="M636.47288889 385.25155555c0-58.368-26.39644445-110.592-67.92533334-145.29422222-19.91111111-7.05422222-41.30133333-11.03644445-63.60177777-11.03644444-104.67555555 0-189.44 84.76444445-189.44 189.44 0 58.368 26.39644445 110.592 67.92533333 145.29422222 19.91111111 7.05422222 41.30133333 11.03644445 63.60177778 11.03644444 104.56177778 0 189.44-84.87822222 189.44-189.44z" fill="#FCEE21" p-id="1167"></path><path d="M488.33422222 620.65777778c-120.71822222 0-218.90844445-98.19022222-218.90844444-218.90844445 0-28.89955555 5.57511111-57.00266667 16.49777777-83.51288888 2.73066667-6.59911111 10.35377778-9.78488889 16.9528889-7.05422223 6.59911111 2.73066667 9.78488889 10.35377778 7.05422222 16.95288889-9.67111111 23.32444445-14.56355555 48.128-14.56355556 73.61422222 0 106.496 86.58488889 193.08088889 193.08088889 193.08088889S681.52888889 508.24533333 681.52888889 401.74933333s-86.58488889-193.08088889-193.08088889-193.08088888c-42.09777778 0-82.03377778 13.312-115.59822222 38.45688888-5.68888889 4.32355555-13.88088889 3.072-18.09066667-2.61688888-4.32355555-5.68888889-3.072-13.88088889 2.61688889-18.09066667 38.11555555-28.55822222 83.39911111-43.57688889 131.072-43.57688889 120.71822222 0 218.90844445 98.19022222 218.90844445 218.90844444-0.11377778 120.71822222-98.304 218.90844445-219.02222223 218.90844445z" fill="#3E3A39" p-id="1168"></path><path d="M316.416 293.54666667c-2.16177778 0-4.20977778-0.56888889-6.25777778-1.59288889-6.25777778-3.41333333-8.53333333-11.264-5.12-17.52177778 3.64088889-6.59911111 8.76088889-12.51555555 14.79111111-17.06666667 5.68888889-4.32355555 13.88088889-3.072 18.09066667 2.61688889 4.32355555 5.68888889 3.072 13.88088889-2.61688889 18.09066667-3.18577778 2.38933333-5.80266667 5.46133333-7.62311111 8.87466666-2.27555555 4.20977778-6.71288889 6.59911111-11.264 6.59911112z" fill="#3E3A39" p-id="1169"></path><path d="M155.30666667 508.70044445c-19.34222222 0-35.04355555-15.70133333-35.04355556-35.04355556s15.70133333-35.04355555 35.04355556-35.04355556 35.04355555 15.70133333 35.04355555 35.04355556c0 19.22844445-15.70133333 35.04355555-35.04355555 35.04355556z m0-52.90666667c-9.78488889 0-17.86311111 7.96444445-17.86311112 17.86311111 0 9.78488889 7.96444445 17.86311111 17.86311112 17.86311111 9.78488889 0 17.86311111-7.96444445 17.86311111-17.86311111-0.11377778-9.89866667-8.07822222-17.86311111-17.86311111-17.86311111z" fill="#47B7F8" p-id="1170"></path><path d="M127.77244445 301.28355555h-15.36v-15.36c0-4.096-3.29955555-7.39555555-7.39555556-7.39555555s-7.39555555 3.29955555-7.39555556 7.39555555v15.36h-15.36c-4.096 0-7.39555555 3.29955555-7.39555555 7.39555556s3.29955555 7.39555555 7.39555555 7.39555556h15.36v15.36c0 4.096 3.29955555 7.39555555 7.39555556 7.39555555s7.39555555-3.29955555 7.39555556-7.39555555v-15.36h15.36c4.096 0 7.39555555-3.29955555 7.39555555-7.39555556s-3.29955555-7.39555555-7.39555555-7.39555556zM971.09333333 302.53511111H955.73333333v-15.36c0-4.096-3.29955555-7.39555555-7.39555555-7.39555556s-7.39555555 3.29955555-7.39555556 7.39555556v15.36h-15.36c-4.096 0-7.39555555 3.29955555-7.39555555 7.39555556s3.29955555 7.39555555 7.39555555 7.39555555H940.94222222v15.36c0 4.096 3.29955555 7.39555555 7.39555556 7.39555556s7.39555555-3.29955555 7.39555555-7.39555556v-15.36h15.36c4.096 0 7.39555555-3.29955555 7.39555556-7.39555555s-3.29955555-7.39555555-7.39555556-7.39555556z" fill="#F7E42F" p-id="1171"></path><path d="M924.672 456.704H906.80888889v-17.86311111c0-4.77866667-3.86844445-8.64711111-8.64711111-8.64711111s-8.64711111 3.86844445-8.64711111 8.64711111v17.86311111h-17.86311112c-4.77866667 0-8.64711111 3.86844445-8.6471111 8.64711111s3.86844445 8.64711111 8.6471111 8.64711111h17.86311112v17.86311111c0 4.77866667 3.86844445 8.64711111 8.64711111 8.64711112s8.64711111-3.86844445 8.64711111-8.64711112v-17.86311111h17.86311111c4.77866667 0 8.64711111-3.86844445 8.64711111-8.64711111s-3.86844445-8.64711111-8.64711111-8.64711111z" fill="#F8B62D" p-id="1172"></path><path d="M244.62222222 223.232m-12.97066667 0a12.97066667 12.97066667 0 1 0 25.94133334 0 12.97066667 12.97066667 0 1 0-25.94133334 0Z" fill="#F8B62D" p-id="1173"></path><path d="M822.95466667 291.49866667m-17.29422222 0a17.29422222 17.29422222 0 1 0 34.58844444 0 17.29422222 17.29422222 0 1 0-34.58844444 0Z" fill="#F8B62D" p-id="1174"></path><path d="M713.61422222 121.05955555m-17.29422222 0a17.29422222 17.29422222 0 1 0 34.58844445 0 17.29422222 17.29422222 0 1 0-34.58844445 0Z" fill="#F7E42F" p-id="1175"></path><path d="M502.784 128.91022222c-19.34222222 0-35.04355555-15.70133333-35.04355555-35.04355555s15.70133333-35.04355555 35.04355555-35.04355556 35.04355555 15.70133333 35.04355555 35.04355556c0.11377778 19.34222222-15.70133333 35.04355555-35.04355555 35.04355555z m0-52.90666667c-9.78488889 0-17.86311111 7.96444445-17.86311111 17.86311112 0 9.78488889 7.96444445 17.86311111 17.86311111 17.86311111s17.86311111-7.96444445 17.86311111-17.86311111-7.96444445-17.86311111-17.86311111-17.86311112z" fill="#F8B62D" p-id="1176"></path><path d="M296.16355555 45.85244445c-1.82044445-1.82044445-4.89244445-1.82044445-6.71288888 0-0.91022222 0.91022222-1.36533333 2.16177778-1.36533334 3.41333333s0.45511111 2.50311111 1.36533334 3.41333333l15.36 15.36c0.91022222 0.91022222 2.048 1.36533333 3.41333333 1.36533334 1.25155555 0 2.50311111-0.45511111 3.41333333-1.36533334 1.82044445-1.82044445 1.82044445-4.89244445 0-6.71288889l-15.47377778-15.47377777zM336.66844445 86.35733333c-0.91022222-0.91022222-2.048-1.36533333-3.41333334-1.36533333-1.25155555 0-2.50311111 0.45511111-3.41333333 1.36533333-1.82044445 1.82044445-1.82044445 4.89244445 0 6.71288889l15.36 15.36c0.91022222 0.91022222 2.048 1.36533333 3.41333333 1.36533333 1.25155555 0 2.50311111-0.45511111 3.41333334-1.36533333 0.91022222-0.91022222 1.36533333-2.048 1.36533333-3.41333333 0-1.25155555-0.45511111-2.50311111-1.36533333-3.41333334l-15.36-15.24622222zM333.25511111 69.40444445c1.25155555 0 2.50311111-0.45511111 3.41333334-1.36533334l15.36-15.36c0.91022222-0.91022222 1.36533333-2.048 1.36533333-3.41333333 0-1.25155555-0.45511111-2.50311111-1.36533333-3.41333333-1.82044445-1.82044445-4.89244445-1.82044445-6.7128889 0L329.95555555 61.21244445c-1.82044445 1.82044445-1.82044445 4.89244445 0 6.71288888 0.79644445 0.91022222 2.048 1.47911111 3.29955556 1.47911112zM304.69688889 86.35733333l-15.36 15.36c-0.91022222 0.91022222-1.36533333 2.16177778-1.36533334 3.41333334s0.45511111 2.50311111 1.36533334 3.41333333c0.91022222 0.91022222 2.048 1.36533333 3.41333333 1.36533333 1.25155555 0 2.50311111-0.45511111 3.41333333-1.36533333l15.36-15.36c1.82044445-1.82044445 1.82044445-4.89244445 0-6.71288889-1.82044445-1.93422222-5.00622222-1.93422222-6.82666666-0.11377778zM307.65511111 77.14133333c0-2.61688889-2.16177778-4.77866667-4.77866666-4.77866666h-21.73155556c-2.61688889 0-4.77866667 2.16177778-4.77866667 4.77866666 0 2.61688889 2.16177778 4.77866667 4.77866667 4.77866667h21.73155556c2.73066667 0 4.77866667-2.16177778 4.77866666-4.77866667zM360.10666667 72.36266667h-21.73155556c-2.61688889 0-4.77866667 2.16177778-4.77866666 4.77866666 0 2.61688889 2.16177778 4.77866667 4.77866666 4.77866667h21.73155556c2.61688889 0 4.77866667-2.16177778 4.77866666-4.77866667 0-2.61688889-2.16177778-4.77866667-4.77866666-4.77866666zM320.73955555 32.88177778c-2.61688889 0-4.77866667 2.16177778-4.77866666 4.77866667v21.73155555c0 2.61688889 2.16177778 4.77866667 4.77866666 4.77866667s4.77866667-2.16177778 4.77866667-4.77866667V37.66044445c0-2.61688889-2.16177778-4.77866667-4.77866667-4.77866667zM320.73955555 90.112c-2.61688889 0-4.77866667 2.16177778-4.77866666 4.77866667v21.61777778c0 2.61688889 2.16177778 4.77866667 4.77866666 4.77866666s4.77866667-2.16177778 4.77866667-4.77866666v-21.61777778c0-2.61688889-2.16177778-4.77866667-4.77866667-4.77866667z" fill="#FAEE00" p-id="1177"></path><path d="M1008.18488889 945.26577778H977.35111111c-7.168 0-12.97066667-5.80266667-12.97066666-12.97066667S970.29688889 919.32444445 977.35111111 919.32444445h30.83377778c7.168 0 12.97066667 5.80266667 12.97066666 12.97066666s-5.80266667 12.97066667-12.97066666 12.97066667zM55.18222222 945.26577778H15.81511111c-7.168 0-12.97066667-5.80266667-12.97066666-12.97066667S8.64711111 919.32444445 15.81511111 919.32444445h39.48088889c7.168 0 12.97066667 5.80266667 12.97066667 12.97066666s-5.91644445 12.97066667-13.08444445 12.97066667z" fill="#3E3A39" p-id="1178"></path><path d="M927.97155555 945.26577778H96.02844445c-7.168 0-12.97066667-5.80266667-12.97066667-12.97066667s5.80266667-12.97066667 12.97066667-12.97066666h831.9431111c7.168 0 12.97066667 5.80266667 12.97066667 12.97066666s-5.80266667 12.97066667-12.97066667 12.97066667z" fill="#3E3A39" p-id="1179"></path><path d="M744.448 815.104m-163.04355555 0a163.04355555 163.04355555 0 1 0 326.0871111 0 163.04355555 163.04355555 0 1 0-326.0871111 0Z" fill="#FFFFFF" p-id="1180"></path><path d="M736.82488889 991.11822222c-105.92711111 0-192.17066667-86.24355555-192.17066667-192.17066667 0-105.92711111 86.24355555-192.17066667 192.17066667-192.17066666S928.99555555 692.90666667 928.99555555 798.83377778c0 106.04088889-86.12977778 192.28444445-192.17066666 192.28444444z m0-358.51377777c-91.70488889 0-166.34311111 74.63822222-166.34311111 166.3431111S645.12 965.29066667 736.82488889 965.29066667s166.34311111-74.63822222 166.34311111-166.34311112c0-91.81866667-74.63822222-166.34311111-166.34311111-166.3431111z" fill="#3E3A39" p-id="1181"></path><path d="M723.39911111 891.904c-3.18577778 0-6.25777778-1.13777778-8.64711111-3.29955555l-83.17155555-74.63822223c-5.34755555-4.77866667-5.80266667-12.97066667-1.024-18.31822222 4.77866667-5.34755555 12.97066667-5.80266667 18.31822222-1.024l72.704 65.30844445 99.328-129.93422223c4.32355555-5.68888889 12.51555555-6.71288889 18.09066666-2.38933333 5.68888889 4.32355555 6.71288889 12.51555555 2.38933334 18.09066666l-107.86133334 140.97066667c-2.16177778 2.84444445-5.46133333 4.66488889-9.10222222 5.00622223-0.22755555 0.22755555-0.56888889 0.22755555-1.024 0.22755555z" fill="#3E3A39" p-id="1182"></path></svg>