<?xml version="1.0" standalone="no"?><!DOCTYPE svg PUBLIC "-//W3C//DTD SVG 1.1//EN" "http://www.w3.org/Graphics/SVG/1.1/DTD/svg11.dtd"><svg t="1534436486227" class="icon" style="" viewBox="0 0 1024 1024" version="1.1" xmlns="http://www.w3.org/2000/svg" p-id="1041" xmlns:xlink="http://www.w3.org/1999/xlink" width="200" height="200"><defs><style type="text/css"></style></defs><path d="M670.13523337 460.31236938H353.86476663c-24.84982243 0-45.18149526-20.33167286-45.18149522-45.18149514l22.59074757-135.54448575c0-24.84982243 20.33167286-45.18149526 45.18149527-45.18149531h271.0889715c24.84982243 0 45.18149526 20.33167286 45.18149527 45.18149531l22.59074757 135.54448575c0 24.84982243-20.33167286 45.18149526-45.18149522 45.18149514z" fill="#FFFFFF" p-id="1042"></path><path d="M692.72598102 279.58638849c0-24.84982243-20.33167286-45.18149526-45.18149527-45.18149531h-18.8180928l18.8180928 112.95373818c0 24.84982243-20.33167286 45.18149526-45.18149529 45.18149521H312.45592624l-3.77265483 22.59074767c0 24.84982243 20.33167286 45.18149526 45.18149522 45.18149514h316.27046674c24.84982243 0 45.18149526-20.33167286 45.18149522-45.18149514l-22.59074757-135.54448575z" fill="#DDEBFF" p-id="1043"></path><path d="M664.48754649 494.22108159h-316.27046676c-43.60014292 0-79.06761665-35.46747379-79.06761666-79.06761665l0.47440572-5.57991461 22.18411414-133.14986655a79.15797967 79.15797967 0 0 1 78.99984438-75.88232123h271.08897155a79.15797967 79.15797967 0 0 1 78.99984443 75.88232123l22.65851985 138.72978116c0 43.60014292-35.46747379 79.06761665-79.06761665 79.06761665z m-327.40770537-77.21517538a11.5212813 11.5212813 0 0 0 11.13723861 9.4429326h316.27046676a11.4986905 11.4986905 0 0 0 11.13723851-9.4429326l-22.43261231-137.39692699c0-6.12209264-5.17328118-11.29537377-11.29537383-11.2953738h-271.08897155c-6.12209264 0-11.29537377 5.17328118-11.2953738 11.2953738l-0.4744057 5.57991469-21.95820669 131.8170123z" fill="#5399FC" p-id="1044"></path><path d="M418.67762161 789.59510682h-316.27046671c-24.84982243 0-45.18149526-20.33167286-45.18149523-45.18149531l22.5907476-135.54448575c0-24.84982243 20.33167286-45.18149526 45.18149524-45.18149514h271.08897145c24.84982243 0 45.18149526 20.33167286 45.18149521 45.18149514l22.59074769 135.54448575c0 24.84982243-20.33167286 45.18149526-45.18149525 45.18149531z" fill="#76AEFD" p-id="1045"></path><path d="M418.67762161 823.45863745h-316.27046671c-43.60014292 0-79.06761665-35.46747379-79.06761667-79.06761667l0.47440564-5.57991469 22.18411416-133.14986643a79.15797967 79.15797967 0 0 1 78.99984448-75.88232125h271.08897145a79.15797967 79.15797967 0 0 1 78.99984447 75.88232125l22.65851982 138.72978112c0 43.60014292-35.46747379 79.06761665-79.06761664 79.06761667z m-327.40770535-77.21517534a11.5212813 11.5212813 0 0 0 11.13723864 9.44293247h316.27046671a11.4986905 11.4986905 0 0 0 11.13723854-9.44293247l-22.43261238-137.39692705c0-6.12209264-5.17328118-11.29537377-11.29537381-11.29537387h-271.08897145c-6.12209264 0-11.29537377 5.17328118-11.29537386 11.29537387l-0.4744057 5.57991461-21.95820669 131.81701244z" fill="#5399FC" p-id="1046"></path><path d="M910.29747135 789.59510682h-316.27046674c-24.84982243 0-45.18149526-20.33167286-45.18149517-45.18149531l22.59074762-135.54448575c0-24.84982243 20.33167286-45.18149526 45.18149517-45.18149514h271.08897146c24.84982243 0 45.18149526 20.33167286 45.18149521 45.18149514l22.59074768 135.54448575c0 24.84982243-20.33167286 45.18149526-45.18149523 45.18149531z" fill="#FFFFFF" p-id="1047"></path><path d="M932.8882189 608.86912576c0-24.84982243-20.33167286-45.18149526-45.18149521-45.18149514h-18.81809276l18.81809276 112.95373802c0 24.84982243-20.33167286 45.18149526-45.18149518 45.18149524h-289.90706429l-3.77265478 22.59074763c0 24.84982243 20.33167286 45.18149526 45.18149517 45.18149531h316.27046674c24.84982243 0 45.18149526-20.33167286 45.18149523-45.18149531l-22.59074768-135.54448575z" fill="#DDEBFF" p-id="1048"></path><path d="M910.29747135 823.45863745h-316.27046674c-43.60014292 0-79.06761665-35.46747379-79.06761672-79.06761667l0.47440577-5.57991469 22.18411416-133.14986643a79.15797967 79.15797967 0 0 1 78.99984441-75.88232125h271.08897146a79.15797967 79.15797967 0 0 1 78.99984449 75.88232125l22.65851987 138.72978112c0 43.60014292-35.46747379 79.06761665-79.0676167 79.06761667z m-327.40770529-77.21517534a11.5212813 11.5212813 0 0 0 11.13723855 9.44293247h316.27046674a11.4986905 11.4986905 0 0 0 11.13723852-9.44293247l-22.43261238-137.39692705c0-6.12209264-5.17328118-11.29537377-11.2953738-11.29537387h-271.08897146c-6.12209264 0-11.29537377 5.17328118-11.29537384 11.29537387l-0.4744057 5.57991461-21.95820663 131.81701244z" fill="#5399FC" p-id="1049"></path><path d="M207.11527015 107.46748231l31.96590778 58.41967335 58.39708264 31.94331716-58.39708264 31.96590787-31.96590778 58.3970826-31.94331719-58.3970826-58.41967334-31.96590787 58.41967334-31.94331716z" fill="#76AEFD" p-id="1050"></path></svg>