<?xml version="1.0" standalone="no"?><!DOCTYPE svg PUBLIC "-//W3C//DTD SVG 1.1//EN" "http://www.w3.org/Graphics/SVG/1.1/DTD/svg11.dtd"><svg t="1534436494367" class="icon" style="" viewBox="0 0 1024 1024" version="1.1" xmlns="http://www.w3.org/2000/svg" p-id="1295" xmlns:xlink="http://www.w3.org/1999/xlink" width="200" height="200"><defs><style type="text/css"></style></defs><path d="M833.02736782 910.68671874H196.92233008c-102.66465217 0-186.17790515-83.51454752-186.17790515-186.17661061v-108.60399376c0-17.15133757 13.8787448-31.03008237 31.03008237-31.03008237 17.15133757 0 31.03008237 13.8787448 31.03008237 31.03008237v108.60399376c0 68.45259472 55.66514569 124.11774041 124.11774041 124.1177404h636.10503774c68.45130018 0 124.11644587-55.66514569 124.11644587-124.1177404v-108.60399376c0-17.15133757 13.88003935-31.03008237 31.0313769-31.03008237 17.15004302 0 31.02878783 13.8787448 31.02878784 31.03008237v108.60399376c0 102.66206309-83.51325298 186.17661061-186.17661061 186.17661061z" fill="#213847" p-id="1296"></path><path d="M642.00141685 317.45808308v349.65737624c0 34.27290075-27.787264 62.05887021-62.0588702 62.05887019h-48.08821318c-34.30267511 0-62.05887021-27.787264-62.0588702-62.05887019V317.45808308H274.19202497L507.79275061 31.01171611l298.74965872 286.44636697H642.00141685z" fill="#FC607B" p-id="1297"></path><path d="M564.42750546 781.90087333h-100.84453136c-54.84829203 0-93.09024711-53.93823163-93.09024711-102.36043568 0-17.15133757 13.8787448-31.03008237 31.03008238-31.03008236 17.15133757 0 31.02878783 13.8787448 31.02878782 31.03008236 0 19.21094795 16.24127715 40.30156547 31.03008237 40.30156546h100.84453137c17.12156318 0 31.03008237-13.90722465 31.03008237-31.02878782V339.18561343c0-17.15133757 13.8787448-31.03008237 31.03008236-31.03008237h116.63272013L514.00523979 95.07064795 284.8887947 308.15553106h116.63401467c17.15133757 0 31.02878783 13.8787448 31.02878782 31.03008237v125.45111484c0 17.15133757-13.8787448 31.02878783-31.02878782 31.02878782-17.15133757 0-31.03008237-13.8787448-31.03008238-31.02878782v-94.42232701H205.95173452a31.05079499 31.05079499 0 0 1-28.87726522-19.66662542 31.01713698 31.01713698 0 0 1 7.75687331-34.0890763l308.0509162-286.47743589c11.87997772-11.09030937 30.36339517-11.09030937 42.24207834 0l308.05350525 286.47743589a31.01713698 31.01713698 0 0 1 7.75687333 34.0890763 31.05079499 31.05079499 0 0 1-28.87726522 19.66662542H657.51645804v318.59881403c0 51.33103155-41.75662649 93.08765804-93.08895258 93.08765804z" fill="#213847" p-id="1298"></path><path d="M401.52280937 629.84440795c-17.15133757 0-31.03008237-13.8787448-31.03008238-31.03008238v-52.72524927c0-17.15133757 13.8787448-31.03008237 31.03008238-31.03008236 17.15133757 0 31.02878783 13.8787448 31.02878782 31.03008236v52.72524927c0 17.1526321-13.87745027 31.03008237-31.02878782 31.03008238z" fill="#213847" p-id="1299"></path></svg>